
<svg version="1.1"
	 xmlns="http://www.w3.org/2000/svg" xmlns:xlink="http://www.w3.org/1999/xlink" xmlns:a="http://ns.adobe.com/AdobeSVGViewerExtensions/3.0/"
	 x="0px" y="0px" width="724.7px" height="712.3px" viewBox="0 0 724.7 712.3"
	 style="overflow:scroll;enable-background:new 0 0 724.7 712.3;" xml:space="preserve">
<style type="text/css">
	.st0{fill:#D9E021;}
	.st1{fill:#8CC63F;}
	.st2{fill:#D4145A;}
	.st3{fill:#9E005D;}
	.st4{fill:#93278F;}
	.st5{fill:#662D91;}
	.st6{fill:#0071BC;}
	.st7{fill:#00ACBC;}
	.st8{fill:#1B1464;}
	.st9{fill:#0F6468;}
	.st10{fill:#FBB03B;}
	.st11{fill:#F15A24;}
	.st12{fill:#22B573;}
	.st13{fill:#006837;}
	.st14{fill:#ED1E79;}
	.st15{fill:#FCEE21;}
	.st16{fill:#FF931E;}
</style>
<defs>
</defs>
<polygon class="st0" points="500.2,702.3 605.2,712.3 581.2,597.3 "/>
<polygon class="st1" points="717.2,646.3 500.2,702.3 508.2,571.3 682.2,555.3 "/>
<polygon class="st2" points="526.4,478.3 627.2,488.4 611.5,428.2 "/>
<polygon class="st3" points="713.5,450.7 526.4,478.3 507.7,419.3 "/>
<polygon class="st4" points="606.2,294.7 516.2,307.8 585.1,227.3 "/>
<path class="st5" d="M430.2,243.6c5.1,0.7,176,51.1,176,51.1l-16-118.2L430.2,243.6z"/>
<polygon class="st6" points="651.6,126.7 567.4,127.4 644.2,58.1 "/>
<polygon class="st7" points="209.6,704.8 285.8,707.5 237.7,636.8 "/>
<polygon class="st8" points="425.3,87.1 651.6,126.7 692.6,48.1 443.8,44 "/>
<polygon class="st9" points="315.7,672 209.6,704.8 217.2,629.7 335.2,626.6 "/>
<polygon class="st10" points="139.3,544.4 257.5,546.5 173.8,494.7 "/>
<polyline class="st11" points="356.9,521.7 137.1,544.9 141.4,467.7 329.9,459.6 357.9,519.5 "/>
<polygon class="st12" points="291.8,376.3 192,401.9 223.4,321.8 "/>
<polygon class="st13" points="6.6,356.5 293.3,375.9 302.9,313.6 37,289.1 "/>
<polygon class="st14" points="31.5,234.9 267.5,250.1 67.1,164.8 "/>
<path class="st3" d="M376.2,211l-344.7,24L66,154.8c0,0,283.9,19.4,283.9,21.1C349.9,177.7,376.2,211,376.2,211z"/>
<polygon class="st15" points="234.7,108.8 144.7,120.6 263.4,31.8 256.8,76.1 "/>
<polygon class="st16" points="45.4,22.5 20.5,61.6 235.6,108.5 289.2,29.1 "/>
<polygon class="st15" points="29.2,8.1 346.3,9.9 361.6,90 19.8,61.4 "/>
<polygon class="st14" points="356.4,156.7 27.4,130.6 3.4,208.7 376.2,211 "/>
<polygon class="st12" points="348.1,287.5 387.8,355.7 5.8,357.7 32.5,274.5 "/>
<polygon class="st10" points="35.6,449.4 31.3,522.8 359,522.2 346.1,431 "/>
<path class="st7" d="M37.1,676.7c0,0-37.1-72.1-37.1-74c0-1.9,371.3-6.3,371.3-6.3l-55.6,75.8L37.1,676.7z"/>
<polygon class="st6" points="434.1,13 425.3,86.8 698,97.8 724.7,0 "/>
<polygon class="st4" points="425.5,159.8 430.2,243.6 696.1,281.7 675.1,156.2 "/>
<polygon class="st2" points="432.8,342.6 435.7,447.8 713.5,450.7 686.7,373.8 "/>
<polygon class="st0" points="438.2,542.3 439.2,684.3 717.2,646.3 713.2,513.3 "/>
</svg>
